<?xml version="1.0" standalone="no"?>
<!DOCTYPE svg PUBLIC "-//W3C//DTD SVG 1.1//EN" "http://www.w3.org/Graphics/SVG/1.1/DTD/svg11.dtd" >
<svg xmlns="http://www.w3.org/2000/svg">
<metadata>Generated by IcoMoon</metadata>
<defs>
<font id="icomoon" horiz-adv-x="1024">
<font-face units-per-em="1024" ascent="960" descent="-64" />
<missing-glyph horiz-adv-x="1024" />
<glyph unicode="&#x20;" horiz-adv-x="512" d="" />
<glyph unicode="&#xe900;" glyph-name="basket-add" horiz-adv-x="1195" d="M279.944-64.343c-64.714 0-114.201 49.487-114.201 114.201s49.487 114.201 114.201 114.201 114.201-49.487 114.201-114.201-49.487-114.201-114.201-114.201zM279.944 87.925c-22.84 0-38.067-15.227-38.067-38.067s15.227-38.067 38.067-38.067 38.067 15.227 38.067 38.067-15.227 38.067-38.067 38.067zM660.613-64.343c-64.714 0-114.201 49.487-114.201 114.201s49.487 114.201 114.201 114.201c64.714 0 114.201-49.487 114.201-114.201s-49.487-114.201-114.201-114.201zM660.613 87.925c-22.84 0-38.067-15.227-38.067-38.067s15.227-38.067 38.067-38.067c22.84 0 38.067 15.227 38.067 38.067s-15.227 38.067-38.067 38.067zM595.899 183.092h-399.703c-22.84 0-38.067 15.227-38.067 38.067s15.227 38.067 38.067 38.067h399.703c68.52 0 125.621 41.874 144.654 106.587l129.428 430.156c30.454 95.167 118.007 159.881 216.981 159.881h68.52c22.84 0 38.067-15.227 38.067-38.067s-15.227-38.067-38.067-38.067h-64.714c-68.52 0-125.621-41.874-144.654-106.587l-133.234-426.349c-26.647-98.974-114.201-163.688-216.981-163.688zM287.557 358.2c-102.781 0-194.141 68.52-220.788 167.494l-64.714 232.208c-3.807 19.033 7.613 41.874 26.647 45.68 19.033 7.613 41.874-3.807 45.68-26.647l64.714-232.208c19.033-64.714 79.941-110.394 148.461-110.394 0 0 0 0 0 0h472.030c22.84 0 38.067-15.227 38.067-38.067s-15.227-38.067-38.067-38.067h-472.030c0 0 0 0 0 0zM626.353 727.449h-315.955c-22.84 0-38.067 15.227-38.067 38.067s15.227 38.067 38.067 38.067h315.955c22.84 0 38.067-15.227 38.067-38.067s-15.227-38.067-38.067-38.067zM470.279 567.568c-22.84 0-38.067 15.227-38.067 38.067v315.955c0 22.84 15.227 38.067 38.067 38.067s38.067-15.227 38.067-38.067v-315.955c0-19.033-19.033-38.067-38.067-38.067z" />
<glyph unicode="&#xe901;" glyph-name="basket-added" horiz-adv-x="1183" d="M265.481-64c-64.474 0-113.778 49.304-113.778 113.778s49.304 113.778 113.778 113.778 113.778-49.304 113.778-113.778-49.304-113.778-113.778-113.778zM265.481 87.704c-22.756 0-37.926-15.17-37.926-37.926s15.17-37.926 37.926-37.926 37.926 15.17 37.926 37.926-15.17 37.926-37.926 37.926zM644.741-64c-64.474 0-113.778 49.304-113.778 113.778s49.304 113.778 113.778 113.778 113.778-49.304 113.778-113.778-49.304-113.778-113.778-113.778zM644.741 87.704c-22.756 0-37.926-15.17-37.926-37.926s15.17-37.926 37.926-37.926c22.756 0 37.926 15.17 37.926 37.926s-15.17 37.926-37.926 37.926zM587.852 190.104h-398.222c-22.756 0-37.926 15.17-37.926 37.926s15.17 37.926 37.926 37.926h398.222c68.267 0 125.156 41.719 144.119 106.193l128.948 428.563c30.341 94.815 117.57 159.289 219.97 159.289h64.474c22.756 0 37.926-15.17 37.926-37.926s-15.17-37.926-37.926-37.926h-64.474c-68.267 0-125.156-41.719-144.119-106.193l-128.948-428.563c-30.341-94.815-121.363-159.289-219.97-159.289zM284.444 364.563c-102.4 0-193.422 68.267-219.97 166.874l-64.474 227.556c-3.793 22.756 7.585 41.719 26.548 49.304 22.756 3.793 41.719-7.585 49.304-26.548l64.474-231.348c18.963-64.474 79.644-109.985 147.911-109.985 0 0 0 0 0 0h470.281c22.756 0 37.926-15.17 37.926-37.926s-15.17-37.926-37.926-37.926h-474.074c0 0 0 0 0 0zM439.941 542.815c-26.548 0-49.304 7.585-72.059 26.548l-87.23 68.267c-15.17 11.378-18.963 37.926-7.585 53.096s37.926 18.963 53.096 7.585l91.022-72.059c15.17-11.378 41.719-11.378 53.096 7.585 0 0 0 3.793 3.793 3.793l166.874 269.274c11.378 18.963 34.133 22.756 53.096 11.378s22.756-34.133 11.378-53.096l-166.874-269.274c-3.793-3.793-3.793-7.585-7.585-11.378-22.756-30.341-56.889-41.719-91.022-41.719z" />
<glyph unicode="&#xe902;" glyph-name="basket-light" horiz-adv-x="1229" d="M762.553 23.149c0-48.131-39.018-87.149-87.149-87.149s-87.149 39.018-87.149 87.149c0 48.131 39.018 87.149 87.149 87.149s87.149-39.018 87.149-87.149zM1111.149 23.149c0-48.131-39.018-87.149-87.149-87.149s-87.149 39.018-87.149 87.149c0 48.131 39.018 87.149 87.149 87.149s87.149-39.018 87.149-87.149zM1163.438 206.162h-466.247c-117.651 0-222.23 69.719-265.804 178.655l-135.081 348.596c-21.787 56.647-78.434 95.864-143.796 95.864h-87.149c-34.86 0-65.362 30.502-65.362 65.362s30.502 65.362 65.362 65.362h87.149c117.651 0 222.23-69.719 265.804-178.655l135.081-348.596c21.787-61.004 78.434-95.864 143.796-95.864h470.604c34.86 0 65.362-30.502 65.362-65.362s-30.502-65.362-69.719-65.362z" />
<glyph unicode="&#xe903;" glyph-name="heart-b-o" horiz-adv-x="1164" d="M581.818-64c-32.582 0-65.164 13.964-93.091 37.236l-4.655 4.655-386.327 390.982c-46.545 46.545-79.127 102.4-93.091 167.564-13.964 60.509-9.309 125.673 9.309 186.182s55.855 116.364 107.055 158.255c46.545 37.236 102.4 65.164 158.255 74.473s116.364 4.655 167.564-13.964c51.2-18.618 97.745-41.891 134.982-79.127 37.236 37.236 83.782 65.164 134.982 79.127 51.2 18.618 111.709 23.273 167.564 13.964s111.709-32.582 153.6-69.818v0c51.2-41.891 88.436-97.745 107.055-158.255s23.273-125.673 9.309-186.182c-13.964-65.164-46.545-121.018-93.091-167.564l-386.327-395.636c-23.273-27.927-55.855-41.891-93.091-41.891zM577.164 75.636c0 0 0 0 0 0v0zM339.782 820.364c-13.964 0-23.273 0-37.236-4.655-32.582-4.655-60.509-18.618-88.436-41.891s-51.2-55.855-65.164-93.091c-9.309-37.236-13.964-74.473-4.655-111.709s27.927-74.473 55.855-97.745l381.673-390.982 381.673 390.982c27.927 27.927 46.545 60.509 55.855 97.745s4.655 74.473-4.655 111.709c-13.964 37.236-32.582 69.818-65.164 93.091v0c-23.273 23.273-55.855 37.236-88.436 41.891-32.582 9.309-69.818 4.655-102.4-4.655s-65.164-27.927-88.436-55.855l-88.436-88.436-88.436 88.436c-23.273 27.927-55.855 46.545-88.436 55.855-23.273 4.655-41.891 9.309-65.164 9.309z" />
<glyph unicode="&#xe904;" glyph-name="heart-o" horiz-adv-x="1170" d="M585.143-64c-29.257 0-58.514 9.752-78.019 34.133l-4.876 4.876-404.724 409.6c-43.886 43.886-73.143 97.524-87.771 160.914s-9.752 126.781 4.876 185.295c19.505 58.514 53.638 117.029 107.276 156.038 43.886 34.133 92.648 58.514 151.162 68.267 53.638 9.752 112.152 4.876 165.79-14.629s102.4-48.762 141.41-87.771l4.876-4.876 9.752 9.752c39.010 39.010 87.771 68.267 141.41 87.771s107.276 19.505 165.79 9.752c53.638-9.752 107.276-34.133 151.162-68.267v0c48.762-39.010 87.771-92.648 107.276-156.038 19.505-58.514 24.381-121.905 9.752-185.295s-43.886-117.029-87.771-160.914l-404.724-414.476c-34.133-24.381-63.39-34.133-92.648-34.133zM331.581 862.476c-14.629 0-29.257 0-43.886-4.876-39.010-4.876-73.143-24.381-102.4-48.762-34.133-29.257-63.39-68.267-73.143-107.276-14.629-43.886-19.505-92.648-9.752-136.533s34.133-82.895 63.39-112.152l404.724-409.6c9.752-9.752 19.505-9.752 24.381 0l404.724 414.476c34.133 29.257 53.638 73.143 63.39 112.152 9.752 43.886 9.752 87.771-4.876 131.657s-39.010 82.895-73.143 107.276v0c-29.257 24.381-68.267 43.886-102.4 48.762-39.010 4.876-78.019 4.876-117.029-9.752s-73.143-34.133-102.4-63.39l-78.019-73.143-78.019 73.143c-29.257 29.257-63.39 53.638-102.4 63.39-24.381 9.752-48.762 14.629-73.143 14.629z" />
<glyph unicode="&#xe905;" glyph-name="manat" horiz-adv-x="972" d="M846.367 615.184c-62.694 94.041-167.184 156.735-282.122 167.184v177.633l-156.735-31.347v-146.286c-114.939-10.449-208.98-73.143-282.122-167.184-94.041-146.286-135.837-323.918-125.388-491.102 0-62.694 0-125.388 10.449-177.633l240.327 41.796c-10.449 41.796-10.449 83.592-10.449 125.388-10.449 125.388 10.449 261.224 62.694 376.163 20.898 52.245 62.694 83.592 104.49 114.939v-491.102l156.735 31.347v449.306c114.939-41.796 167.184-208.98 167.184-480.653 0-41.796 0-94.041-10.449-135.837l240.327-41.796c10.449 62.694 10.449 114.939 10.449 177.633 10.449 177.633-31.347 355.265-125.388 501.551z" />
<glyph unicode="&#xe906;" glyph-name="menu" horiz-adv-x="1402" d="M0 960h1401.6v-128h-1401.6v128zM0 512h1401.6v-128h-1401.6v128zM0 64h1401.6v-128h-1401.6v128z" />
<glyph unicode="&#xe907;" glyph-name="pan" horiz-adv-x="1210" d="M889.018-64h-567.855c-102.4 0-186.182 83.782-186.182 186.182v325.818h-134.982v69.818h134.982v88.436l4.655 18.618c55.855 93.091 176.873 158.255 325.818 186.182 0 79.127 60.509 144.291 139.636 148.945 79.127 0 144.291-69.818 139.636-148.945 148.945-27.927 265.309-97.745 325.818-186.182l4.655-18.618v-88.436h134.982v-69.818h-134.982v-325.818c0-46.545-18.618-93.091-55.855-130.327-32.582-37.236-79.127-55.855-130.327-55.855zM204.8 555.055v-432.873c0-65.164 51.2-116.364 116.364-116.364h572.509c65.164 0 116.364 51.2 116.364 116.364v432.873h-805.236zM605.091 755.2c-79.127 0-158.255-13.964-237.382-41.891-60.509-23.273-116.364-60.509-158.255-111.709h791.273c-69.818 93.091-223.418 153.6-395.636 153.6v0 0 0zM605.091 825.018c9.309 0 23.273 0 32.582 0v0c9.309 0 23.273 0 32.582 0v0c-4.655 37.236-32.582 65.164-69.818 69.818v0c-37.236 0-65.164-27.927-69.818-65.164 27.927-4.655 51.2-4.655 74.473-4.655zM721.455 89.6v0l-32.582 32.582 200.145 200.145 32.582-32.582-200.145-200.145zM567.855 122.182v0l-32.582 32.582 302.545 302.545 32.582-32.582-302.545-302.545z" />
<glyph unicode="&#xe908;" glyph-name="photo" horiz-adv-x="1382" d="M1341.44-64h-1300.48l-40.96 35.84v885.76l40.96 35.84h163.84v15.36l51.2 51.2h271.36l51.2-51.2v-15.36h762.88l35.84-35.84 5.12-885.76-40.96-35.84zM81.92 545.28v-532.48h1223.68v532.48h-1223.68zM76.8 821.76v-225.28h1218.56v225.28h-1218.56zM691.2 104.96c-102.4 0-184.32 76.8-189.44 179.2 5.12 102.4 92.16 184.32 194.56 179.2 97.28-5.12 179.2-81.92 179.2-179.2 0-102.4-81.92-179.2-184.32-179.2zM691.2 417.28c-71.68-5.12-128-61.44-128-138.24 5.12-71.68 61.44-128 138.24-128 71.68 5.12 128 61.44 128 133.12-5.12 76.8-66.56 133.12-138.24 133.12zM1070.080 652.8c-25.6 0-51.2 20.48-51.2 46.080s20.48 51.2 46.080 51.2c0 0 0 0 5.12 0v0c25.6 0 51.2-20.48 51.2-51.2v0 0c0-25.6-25.6-46.080-51.2-46.080v0z" />
<glyph unicode="&#xe909;" glyph-name="smartphone" horiz-adv-x="630" d="M598.646-64h-567.138l-31.508 31.508v960.985l31.508 31.508h567.138l31.508-31.508v-960.985l-31.508-31.508zM63.015 168.369v-169.354h504.123v169.354h-504.123zM63.015 896.985v-689.231h500.185v689.231h-500.185zM315.077 46.277c-23.631 0-39.385 15.754-39.385 39.385s15.754 39.385 39.385 39.385c0 0 0 0 3.938 0 23.631 0 39.385-15.754 39.385-39.385 0-19.692-19.692-35.446-43.323-39.385 0 0 0 0 0 0zM177.231 542.523v0l-27.569 27.569 263.877 259.938 27.569-27.569-263.877-259.938zM149.662 652.8v0l-27.569 27.569 161.477 161.477 27.569-27.569-161.477-161.477z" />
<glyph unicode="&#xe90a;" glyph-name="tv" horiz-adv-x="1247" d="M832.557-64h-422.957v66.783h178.087v111.304h-556.522l-31.165 31.165v783.583l31.165 31.165h1179.826l35.617-31.165v-783.583l-31.165-31.165h-560.974v-111.304h178.087v-66.783zM66.783 893.217v-716.8h1117.496v716.8h-1117.496zM828.104 292.174v0l-40.070 40.070 231.513 231.513 40.070-40.070-231.513-231.513zM650.017 327.791v0l-40.070 40.070 351.722 347.27 40.070-40.070-351.722-347.27z" />
<glyph unicode="&#xe90b;" glyph-name="washer" horiz-adv-x="796" d="M766.104-64h-735.763l-30.341 30.341v963.319l26.548 30.341h739.556l30.341-30.341v-967.111l-30.341-26.548zM56.889 690.726v-697.837h682.667v697.837h-682.667zM56.889 903.111v-174.459h682.667v174.459h-682.667zM398.222 118.044c-117.57 3.793-208.593 98.607-204.8 212.385s98.607 208.593 212.385 204.8c113.778-3.793 204.8-94.815 204.8-208.593 0-117.57-94.815-208.593-212.385-208.593v0zM398.222 482.133c-41.719 0-79.644-15.17-109.985-45.511-30.341-26.548-45.511-68.267-45.511-106.193 0-87.23 64.474-155.496 151.704-159.289 87.23 0 155.496 64.474 159.289 151.704 0 87.23-64.474 155.496-151.704 159.289-3.793 0-3.793 0-3.793 0v0 0zM512 303.881h-37.926c0 41.719-34.133 75.852-75.852 75.852v37.926c30.341 0 60.681-11.378 83.437-34.133 18.963-18.963 30.341-45.511 30.341-79.644v0zM603.022 785.541c-11.378 0-18.963 7.585-18.963 18.963s7.585 18.963 18.963 18.963c11.378 0 18.963-7.585 18.963-18.963 0-7.585-7.585-18.963-18.963-18.963z" />
<glyph unicode="&#xe90c;" glyph-name="close" horiz-adv-x="1048" d="M38.71 8.287l948.187 948.187 57.466-57.466-948.187-948.187-57.466 57.466zM1.917 881.603l57.466 57.466 948.187-948.187-57.466-57.466-948.187 948.187z" />
<glyph unicode="&#xe90d;" glyph-name="grid" horiz-adv-x="1192" d="M11.977-52.023c-5.988 5.988-11.977 17.965-11.977 29.942v101.801c0 23.953 17.965 41.918 35.93 41.918 0 0 0 0 5.988 0h149.708c23.953 0 41.918-17.965 41.918-35.93 0 0 0 0 0-5.988v-101.801c0-23.953-17.965-41.918-35.93-41.918 0 0 0 0-5.988 0h-149.708c-11.977 0-23.953 0-29.942 11.977zM491.041-52.023c-5.988 5.988-11.977 17.965-11.977 29.942v101.801c0 23.953 17.965 41.918 35.93 41.918 0 0 0 0 5.988 0h149.708c23.953 0 41.918-17.965 41.918-35.93 0 0 0 0 0-5.988v-101.801c0-23.953-17.965-41.918-35.93-41.918 0 0 0 0-5.988 0h-149.708c-11.977 0-23.953 0-29.942 11.977zM970.105-52.023c-5.988 5.988-11.977 17.965-11.977 29.942v101.801c0 23.953 17.965 41.918 35.93 41.918 0 0 0 0 5.988 0h149.708c23.953 0 41.918-17.965 41.918-35.93 0 0 0 0 0-5.988v-101.801c0-23.953-17.965-41.918-35.93-41.918 0 0 0 0-5.988 0h-149.708c-11.977 0-23.953 0-29.942 11.977zM11.977 367.158c-5.988 5.988-11.977 17.965-11.977 29.942v101.801c0 23.953 17.965 41.918 35.93 41.918 0 0 0 0 5.988 0h149.708c23.953 0 41.918-17.965 41.918-35.93 0 0 0 0 0-5.988v-101.801c0-23.953-17.965-41.918-35.93-41.918 0 0 0 0-5.988 0h-149.708c-11.977 0-23.953 0-29.942 11.977zM491.041 367.158c-5.988 5.988-11.977 17.965-11.977 29.942v101.801c0 23.953 17.965 41.918 35.93 41.918 0 0 0 0 5.988 0h149.708c23.953 0 41.918-17.965 41.918-35.93 0 0 0 0 0-5.988v-101.801c0-23.953-17.965-41.918-35.93-41.918 0 0 0 0-5.988 0h-149.708c-11.977 0-23.953 0-29.942 11.977zM970.105 367.158c-5.988 5.988-11.977 17.965-11.977 29.942v101.801c0 23.953 17.965 41.918 35.93 41.918 0 0 0 0 5.988 0h149.708c23.953 0 41.918-17.965 41.918-35.93 0 0 0 0 0-5.988v-101.801c0-23.953-17.965-41.918-35.93-41.918 0 0 0 0-5.988 0h-149.708c-11.977 0-23.953 0-29.942 11.977zM11.977 786.339c-5.988 5.988-11.977 17.965-11.977 29.942v101.801c0 11.977 5.988 23.953 11.977 29.942s17.965 11.977 29.942 11.977h149.708c11.977 0 23.953-5.988 29.942-11.977s11.977-17.965 11.977-29.942v-101.801c0-23.953-17.965-41.918-35.93-41.918 0 0 0 0-5.988 0h-149.708c-11.977 0-23.953 0-29.942 11.977zM491.041 786.339c-5.988 5.988-11.977 17.965-11.977 29.942v101.801c0 11.977 5.988 23.953 11.977 29.942s17.965 11.977 29.942 11.977h149.708c11.977 0 23.953-5.988 29.942-11.977s11.977-17.965 11.977-29.942v-101.801c0-23.953-17.965-41.918-35.93-41.918 0 0 0 0-5.988 0h-149.708c-11.977 0-23.953 0-29.942 11.977zM970.105 786.339c-5.988 5.988-11.977 17.965-11.977 29.942v101.801c0 11.977 5.988 23.953 11.977 29.942s17.965 11.977 29.942 11.977h149.708c11.977 0 23.953-5.988 29.942-11.977s11.977-17.965 11.977-29.942v-101.801c0-23.953-17.965-41.918-35.93-41.918 0 0 0 0-5.988 0h-149.708c-11.977 0-23.953 0-29.942 11.977z" />
<glyph unicode="&#xe90e;" glyph-name="list" horiz-adv-x="1168" d="M1125.801-64h-1083.883c-23.953 0-41.918 17.965-41.918 35.93 0 0 0 0 0 5.988v101.801c0 11.977 5.988 23.953 11.977 29.942s17.965 11.977 29.942 11.977h1083.883c23.953 0 41.918-17.965 41.918-35.93 0 0 0 0 0-5.988v-101.801c0-23.953-11.977-41.918-41.918-41.918 5.988 0 0 0 0 0v0zM1125.801 355.181h-1083.883c-11.977 0-23.953 5.988-29.942 11.977s-11.977 17.965-11.977 29.942v101.801c0 23.953 17.965 41.918 35.93 41.918 0 0 0 0 5.988 0h1083.883c23.953 0 41.918-17.965 41.918-35.93 0 0 0 0 0-5.988v-101.801c0-23.953-11.977-41.918-41.918-41.918 5.988 0 0 0 0 0v0zM1125.801 774.363h-1083.883c-11.977 0-23.953 5.988-29.942 11.977s-11.977 17.965-11.977 29.942v101.801c0 11.977 5.988 23.953 11.977 29.942s17.965 11.977 29.942 11.977h1083.883c11.977 0 23.953-5.988 29.942-11.977s11.977-17.965 11.977-29.942v-101.801c0-23.953-11.977-41.918-41.918-41.918 5.988 0 0 0 0 0v0z" />
<glyph unicode="&#xe90f;" glyph-name="percent" d="M669.538-64h-15.754c-23.631 7.877-47.262 19.692-66.954 27.569s-47.262 19.692-70.892 31.508c-23.631-11.815-43.323-19.692-66.954-27.569s-43.323-19.692-66.954-27.569c-7.877-3.938-19.692-3.938-27.569-3.938-19.692 0-39.385 11.815-47.262 31.508-11.815 23.631-23.631 43.323-35.446 66.954s-19.692 43.323-31.508 63.015c-51.2 15.754-98.462 31.508-141.785 47.262h-3.938c-31.508 11.815-47.262 43.323-35.446 74.831 7.877 47.262 19.692 94.523 31.508 141.785l-82.708 129.969c-15.754 23.631-7.877 51.2 11.815 66.954s39.385 31.508 63.015 47.262 39.385 31.508 59.077 47.262c7.877 47.262 11.815 94.523 15.754 145.723 0 27.569 23.631 47.262 51.2 47.262 3.938 0 3.938 0 7.877 0h3.938c23.631 0 51.2 0 74.831 0s47.262 0 74.831 0c15.754 19.692 35.446 35.446 51.2 51.2s35.446 35.446 51.2 51.2c11.815 7.877 27.569 11.815 39.385 11.815 15.754 0 31.508-7.877 47.262-15.754v0c35.446-35.446 70.892-66.954 106.338-98.462v0c23.631 0 51.2 0 74.831 0s47.262 0 74.831 0c23.631 0 47.262-19.692 51.2-43.323s7.877-47.262 11.815-70.892 7.877-51.2 11.815-74.831c15.754-15.754 35.446-31.508 55.138-43.323s39.385-31.508 55.138-47.262c23.631-19.692 31.508-51.2 15.754-78.769-11.815-23.631-23.631-43.323-35.446-63.015s-27.569-43.323-39.385-63.015c3.938-23.631 7.877-47.262 15.754-70.892s11.815-51.2 15.754-74.831v-19.692c-3.938-15.754-11.815-31.508-23.631-39.385l-23.631-11.815-129.969-43.323c-11.815-23.631-23.631-47.262-35.446-66.954s-27.569-47.262-39.385-70.892c-15.754-15.754-31.508-27.569-51.2-27.569zM216.615 786.708v0l-3.938-39.385-11.815-102.4c-3.938-15.754-11.815-27.569-23.631-39.385l-110.277-78.769 78.769-126.031c7.877-15.754 11.815-31.508 7.877-47.262l-35.446-141.785v-3.938l70.892-23.631 66.954-23.631c15.754-7.877 27.569-15.754 35.446-31.508l39.385-78.769 23.631-51.2h3.938l90.585 35.446 47.262 19.692c7.877 3.938 15.754 3.938 23.631 3.938s15.754 0 23.631-3.938l106.338-43.323 23.631-11.815 70.892 129.969c3.938 15.754 15.754 23.631 31.508 27.569l129.969 43.323c0 3.938 0 3.938 3.938 3.938v0l-15.754 90.585-11.815 55.138c-3.938 15.754 0 31.508 7.877 43.323l74.831 126.031c0 0 0 3.938 0 3.938s0 0-3.938 0l-15.754 11.815-94.523 74.831c-11.815 7.877-19.692 19.692-19.692 35.446l-7.877 66.954-11.815 78.769h-43.323l-102.4-3.938h-3.938c-15.754 0-27.569 7.877-39.385 15.754l-110.277 98.462c-35.446-35.446-66.954-66.954-106.338-102.4-7.877-11.815-23.631-15.754-39.385-15.754h-7.877l-141.785 3.938zM445.046 184.123h-11.815c-7.877 3.938-15.754 7.877-15.754 15.754-3.938 7.877-3.938 15.754-3.938 23.631l157.538 445.046c7.877 15.754 23.631 23.631 39.385 19.692 7.877-3.938 15.754-7.877 15.754-15.754 3.938-7.877 3.938-15.754 3.938-23.631l-157.538-445.046c-3.938-11.815-15.754-19.692-27.569-19.692zM673.477 188.062c-35.446-3.938-66.954 15.754-82.708 43.323s-23.631 59.077-23.631 90.585c-3.938 35.446 7.877 66.954 27.569 94.523s51.2 39.385 82.708 39.385c43.323 0 66.954-11.815 78.769-43.323 31.508-55.138 31.508-126.031 0-181.169-15.754-27.569-51.2-47.262-82.708-43.323zM677.415 392.862c-7.877 0-27.569 0-35.446-11.815l-3.938-3.938c-11.815-15.754-15.754-31.508-11.815-51.2-3.938-23.631 3.938-43.323 15.754-63.015v0c3.938-3.938 7.877-11.815 35.446-11.815 23.631 0 31.508 7.877 35.446 11.815v0 0c0 0 0 0 0 0 7.877 15.754 15.754 35.446 15.754 55.138s-3.938 43.323-15.754 59.077v0c-3.938 7.877-11.815 15.754-35.446 15.754zM362.338 396.8v0c-35.446-3.938-66.954 15.754-82.708 43.323s-23.631 59.077-23.631 90.585c0 31.508 7.877 63.015 27.569 90.585 15.754 27.569 47.262 47.262 82.708 43.323 35.446 3.938 66.954-15.754 82.708-43.323s23.631-59.077 23.631-90.585c0-31.508-7.877-63.015-23.631-90.585-19.692-27.569-51.2-43.323-86.646-43.323zM366.277 605.538c-11.815 0-27.569-3.938-35.446-15.754-11.815-15.754-15.754-39.385-15.754-59.077s7.877-39.385 15.754-59.077v0 0 0c3.938-3.938 7.877-11.815 35.446-11.815s31.508 7.877 35.446 11.815c0 0 0 0 0 0 7.877 19.692 15.754 39.385 15.754 63.015 0 19.692-3.938 43.323-15.754 59.077-7.877 11.815-27.569 11.815-35.446 11.815v0z" />
<glyph unicode="&#xe910;" glyph-name="dryer" horiz-adv-x="1071" d="M642.678-64v0c-25.707 0-51.414 4.285-72.837 17.138-34.276 12.854-64.268 42.845-77.121 77.121-8.569 29.992-8.569 64.268 8.569 94.259 38.561 77.121 89.975 218.51 59.983 274.209-4.285 8.569-12.854 17.138-21.423 21.423-111.397 12.854-235.649 29.992-342.762 42.845-98.544 12.854-167.096 25.707-167.096 25.707l-29.992 25.707v325.623l25.707 29.992c25.707 4.285 586.979 77.121 736.937 89.975 8.569 0 12.854 0 21.423 0 72.837 0 141.389-25.707 192.803-77.121 59.983-51.414 94.259-128.536 94.259-205.657-4.285-68.552-29.992-132.82-72.837-184.234-8.569-17.138-17.138-29.992-25.707-47.13-8.569-12.854-12.854-25.707-21.423-38.561-38.561-64.268-72.837-128.536-107.113-192.803-12.854-29.992-25.707-64.268-34.276-89.975v-4.285c-29.992-72.837-55.699-145.674-111.397-171.381-21.423-8.569-38.561-12.854-55.699-12.854zM621.255 403.013c21.423-68.552 0-175.665-64.268-308.485v-4.285c-8.569-12.854-8.569-25.707-4.285-38.561 8.569-21.423 25.707-34.276 42.845-42.845 21.423-12.854 47.13-12.854 68.552-4.285 34.276 17.138 59.983 77.121 81.406 141.389 8.569 25.707 21.423 59.983 38.561 94.259v0c29.992 59.983 59.983 119.967 94.259 175.665-34.276-12.854-72.837-21.423-111.397-21.423h-4.285c-29.992 0-77.121 0-141.389 8.569v0zM779.782 895.732c-4.285 0-8.569 0-12.854 0-68.552-4.285-239.933-25.707-509.858-59.983v-321.339c115.682-17.138 201.372-25.707 269.925-34.276 0 0 201.372-21.423 239.933-21.423h4.285c64.268 0 124.251 25.707 171.381 68.552v0c42.845 38.561 64.268 94.259 64.268 149.958 0 4.285 0 4.285 0 8.569-8.569 115.682-107.113 209.941-227.079 209.941v0zM214.226 831.464l-149.958-21.423v-269.925l141.389-21.423h8.569v312.77zM899.749 664.368h-42.845c4.285 34.276-8.569 68.552-29.992 89.975-29.992 21.423-68.552 34.276-107.113 34.276-8.569 0-21.423 0-29.992-4.285v42.845c12.854 0 25.707 4.285 34.276 4.285 47.13 4.285 94.259-12.854 132.82-42.845 29.992-34.276 47.13-77.121 42.845-124.251v0z" />
<glyph unicode="&#xe911;" glyph-name="clock" horiz-adv-x="591" d="M218.353-64h-52.706v244.706c-146.824 75.294-207.059 252.235-135.529 399.059 30.118 60.235 75.294 105.412 135.529 135.529v244.706h56.471v-225.882c48.941 11.294 97.882 11.294 146.824 0v225.882h56.471v-248.471c146.824-71.529 207.059-248.471 135.529-391.529-30.118-60.235-75.294-105.412-135.529-135.529v-248.471h-56.471v225.882c-48.941-11.294-97.882-11.294-146.824 0l-3.765-225.882zM293.647 688.941c-131.765 0-240.941-109.176-240.941-240.941s109.176-240.941 240.941-240.941c131.765 0 240.941 105.412 240.941 237.176v0c0 135.529-105.412 244.706-240.941 244.706zM448 425.412h-143.059l-18.824 18.824v158.118h37.647v-139.294h124.235v-37.647z" />
<glyph unicode="&#xe912;" glyph-name="plus-b" horiz-adv-x="1056" d="M428.8 960h192v-1024h-192v1024zM0 576h1056v-192h-1056v192z" />
<glyph unicode="&#xe913;" glyph-name="chevron-left" horiz-adv-x="563" d="M511.311-65.449l-510.812 513.188 510.812 513.188 52.269-52.269-463.295-460.919 463.295-463.295z" />
<glyph unicode="&#xe914;" glyph-name="chevron-right" horiz-adv-x="563" d="M49.893-65.449l-49.893 49.893 460.919 463.295-460.919 460.919 49.893 52.269 513.188-513.188z" />
<glyph unicode="&#xe915;" glyph-name="close-b" d="M944.151 876.284l-860.328-860.328zM79.93-65.795c-23.357 0-38.929 7.786-58.393 27.25-31.143 31.143-31.143 85.644 0 116.787l864.221 856.436c31.143 31.143 85.644 31.143 116.787 0s31.143-85.644 0-116.787l-860.328-860.328c-15.572-15.572-38.929-23.357-62.286-23.357zM940.258 15.956l-860.328 860.328zM944.151-65.795c-23.357 0-38.929 7.786-58.393 27.25l-860.328 860.328c-31.143 31.143-31.143 85.644 0 116.787s85.644 31.143 116.787 0l860.328-860.328c31.143-31.143 31.143-85.644 0-116.787-19.464-19.464-35.036-27.25-58.393-27.25z" />
<glyph unicode="&#xe916;" glyph-name="plus" d="M514.040-64c-32.637 0-61.195 28.558-61.195 61.195v901.61c0 32.637 28.558 61.195 61.195 61.195s61.195-28.558 61.195-61.195v-901.61c0-32.637-28.558-61.195-61.195-61.195zM1024 445.96c0-32.637-28.558-61.195-61.195-61.195h-901.61c-32.637 0-61.195 28.558-61.195 61.195s28.558 61.195 61.195 61.195h901.61c32.637 0 61.195-24.478 61.195-61.195z" />
</font>
</defs>
</svg>
