<svg xmlns="http://www.w3.org/2000/svg" viewBox="0 0 72 67"><path d="M36.5 47c-.8 0-1.5.7-1.5 1.5s.7 1.5 1.5 1.5 1.5-.7 1.5-1.5-.7-1.5-1.5-1.5z"/><path d="M67.8 67H13.5c-2.3 0-4.2-1.9-4.2-4.2V41.9H4.2C1.9 41.9 0 40 0 37.7V4.2C0 1.9 1.9 0 4.2 0h54.3c2.3 0 4.2 1.9 4.2 4.2v20.9h5.1c2.3 0 4.2 1.9 4.2 4.2v33.5c0 2.3-1.9 4.2-4.2 4.2zM13.5 27.9c-.8 0-1.4.6-1.4 1.4v33.5c0 .8.6 1.4 1.4 1.4h54.3c.8 0 1.4-.6 1.4-1.4V29.3c0-.8-.6-1.4-1.4-1.4H13.5zM2.8 19.5v18.1c0 .8.6 1.4 1.4 1.4h5.1v-9.8c0-2.3 1.9-4.2 4.2-4.2h46.4v-5.6H2.8zm0-8.3v5.6h57.1v-5.6H2.8zm1.4-8.4c-.8 0-1.4.6-1.4 1.4v4.2h57.1V4.2c0-.8-.6-1.4-1.4-1.4H4.2z"/><path d="M55.8 47c-1.5 0-3.1-.5-4.3-1.4-1.3.9-2.8 1.4-4.3 1.4-3.9 0-7.1-3.1-7.2-7 .1-3.9 3.3-7 7.2-7 1.5 0 3.1.5 4.3 1.4 1.3-.9 2.8-1.4 4.3-1.4 3.9 0 7.1 3.1 7.2 7-.1 3.9-3.3 7-7.2 7zm0-11.2c-.9 0-1.7.2-2.4.7 1.3 2.2 1.3 4.8 0 7 .7.5 1.5.7 2.4.7 2.3 0 4.3-1.8 4.3-4.2 0-2.3-1.9-4.2-4.3-4.2zm-8.6 0c-2.3 0-4.3 1.9-4.3 4.2 0 2.3 2 4.2 4.3 4.2 1.2 0 2.4-.5 3.2-1.4 1.4-1.6 1.4-4 0-5.6-.8-.9-2-1.4-3.2-1.4zM24.7 56h-5.3c-.8 0-1.4.7-1.3 1.5 0 .8.6 1.5 1.3 1.5h5.3c.8 0 1.4-.7 1.3-1.5 0-.8-.6-1.5-1.3-1.5zm11 0h-5.3c-.8 0-1.4.7-1.3 1.5 0 .8.6 1.5 1.3 1.5h5.3c.8 0 1.4-.7 1.3-1.5 0-.8-.6-1.5-1.3-1.5zm11 0h-5.3c-.8 0-1.4.7-1.3 1.5 0 .8.6 1.5 1.3 1.5h5.3c.8 0 1.4-.7 1.3-1.5 0-.8-.6-1.5-1.3-1.5zm12 0h-5.3c-.8 0-1.4.7-1.3 1.5 0 .8.6 1.5 1.3 1.5h5.3c.8 0 1.4-.7 1.3-1.5 0-.8-.6-1.5-1.3-1.5zm-39.3-6h11.2c.8 0 1.4-.7 1.4-1.5s-.6-1.5-1.4-1.5H19.4c-.8 0-1.4.7-1.4 1.5s.6 1.5 1.4 1.5z"/></svg>