<svg xmlns="http://www.w3.org/2000/svg" viewBox="0 0 84 84"><path d="M38.598 56.6c.6-.6.6-1.5 0-2.1-.6-.6-1.5-.6-2.1 0-.6.6-.6 1.5 0 2.1.5.5 1.5.5 2.1 0zm9.4-20.6c-9.9 0-18-8.1-18-18s8.1-18 18-18 18 8.1 18 18-8.1 18-18 18zm0-32.7c-8.1 0-14.7 6.6-14.7 14.7s6.6 14.7 14.7 14.7 14.7-6.6 14.7-14.7-6.6-14.7-14.7-14.7z"/><path d="M20.098 84c-.4 0-.9-.2-1.2-.5L.498 65c-.6-.6-.6-1.7 0-2.3l7.8-7.8c1.1-1.1 2.8-1.7 4.4-1.4 3.6-6.6 10.4-10.5 18.5-10.5 2.8 0 5.6.5 8.2 1.6h18.3c2 0 3.9.9 5.1 2.4l9.7-9.9c2.4-2.7 6.5-3 9.2-.7 2.8 2.3 3.1 6.4.8 9.2-6.3 7.5-9.9 11.8-12 14.3-2.8 3.4-2.8 3.4-2.9 3.4-2.8 2.7-6.5 4.2-10.3 4.2h-21.8c-1.3 0-2.5.5-3.4 1.4l-1.7 1.6c.6 1.8.2 3.7-1.2 5.1l-8 7.8c-.3.4-.7.6-1.1.6zm-8.3-27.3c-.4 0-.8.2-1.2.5l-6.6 6.7 16.1 16.2 6.8-6.7c.6-.6.6-1.7 0-2.3-5.9-5.8-9.2-9.2-11.3-11.2-.9-1-1.9-2-2.9-2.9-.3-.2-.6-.3-.9-.3zm19.4-10.3c-7 0-12.7 3.2-15.7 8.8l12.9 12.8 1.4-1.3c1.5-1.5 3.6-2.3 5.7-2.3h21.8c3 0 5.8-1.1 8-3.2l14.7-17.5c1.2-1.4 1-3.4-.4-4.6-1.4-1.2-3.5-1-4.6.4 0 0-.5.5-2.8 2.9l-1.2 1-.3.3-6.5 6.6c.5 3.6-2 6.9-5.6 7.3-.3 0-.6.1-.9.1h-13.4c-.9 0-1.6-.7-1.6-1.6s.7-1.6 1.6-1.6h13.4c1.8 0 3.3-1.5 3.3-3.3s-1.5-3.2-3.3-3.2h-18.6c-.2 0-.5 0-.7-.1-2.3-1-4.7-1.5-7.2-1.5zm16.2-37.8v1.9c-2.6.9-3.9 3.7-3 6.3.7 2 2.6 3.3 4.7 3.3.9 0 1.7.7 1.7 1.6 0 .9-.7 1.7-1.6 1.7h-.1c-.9-.1-1.6-.5-2.1-1.2-.6-.7-1.7-.7-2.3-.1-.6.6-.7 1.5-.2 2.2.8 1 1.8 1.7 3 2.1v1.9c0 .9.7 1.6 1.7 1.6s1.7-.7 1.7-1.6v-1.9c2.6-.9 3.9-3.7 3-6.3-.7-2-2.6-3.3-4.7-3.3-.9 0-1.6-.7-1.6-1.6 0-.9.7-1.6 1.6-1.6.7 0 1.3.4 1.8.9.6.6 1.7.7 2.3 0 .6-.6.7-1.7 0-2.3h-.1c-.7-.7-1.5-1.2-2.4-1.5V8.6c-.1-.9-.8-1.6-1.7-1.6s-1.7.7-1.7 1.6z"/></svg>