<svg xmlns="http://www.w3.org/2000/svg" viewBox="0 0 68 68"><path d="M55.5 57c-.8 0-1.5.7-1.5 1.5s.7 1.5 1.5 1.5 1.5-.7 1.5-1.5-.7-1.5-1.5-1.5z"/><path d="M63.2 68H4.8c-.7 0-1.3-.6-1.3-1.3V30.9C1.4 29.8.1 27.6 0 25.2v-2.7c0-.4 0-.5 1.4-2.8C2.5 17.8 4.6 14 8.7 6.4V4c0-2.2 1.8-4 4-4h42.5c2.2 0 4 1.8 4 4v2.3c4 7.3 6.1 11.1 7.2 13.2v.1c1.4 2.4 1.4 2.5 1.4 2.9v2.7c-.1 2.4-1.4 4.5-3.5 5.7v35.8c.2.7-.3 1.3-1.1 1.3zM12.8 37.2h15.9c.7 0 1.3.6 1.3 1.3v26.8h31.9V31.8c-.3 0-.6.1-.9.1-2.2 0-4.3-1-5.6-2.8-1.3 1.7-3.2 2.7-5.4 2.8-2.1 0-4.1-1-5.3-2.7-2.2 2.9-6.4 3.5-9.3 1.3-.5-.4-1-.8-1.3-1.3-2.2 2.9-6.4 3.5-9.3 1.3-.5-.4-1-.8-1.3-1.3-1.2 1.7-3.2 2.7-5.3 2.7-2.1 0-4.1-1-5.4-2.8-.2.3-.5.6-.8.9-1.3 1.2-3.1 1.9-4.8 1.9-.3 0-.6 0-.9-.1v33.5h5.3V38.5c-.2-.7.4-1.3 1.2-1.3zm1.3 16.7v11.4h13.3V53.9H14.1zm0-14.1v11.4h13.3V39.8H14.1zm42.5-15.9v1.3c.2 2.4 2.4 4.2 4.8 4 .4 0 .9-.1 1.3-.3 1.6-.6 2.7-2 2.7-3.7v-1.3h-8.8zm-10.6 0v1.3c0 2.2 1.8 4 4 4s4-1.8 4-4v-1.3h-8zm-10.7 0v1.3c0 2.2 1.8 4 4 4s4-1.8 4-4v-1.3h-8zm-10.6 0v1.3c0 2.2 1.8 4 4 4s4-1.8 4-4v-1.3h-8zm-10.6 0v1.3c0 2.2 1.8 4 4 4s4-1.8 4-4v-1.3h-8zm-11.4 0v1.3c.1 1.6 1.1 3 2.6 3.6.5.2 1.1.4 1.7.4 2.3 0 4.2-1.7 4.4-4v-1.3H2.7zM51.8 8l4.4 13.3h8.2L57.1 8h-5.3zm-8.3 0l2.2 13.3h7.7L49 8h-5.5zm-8.2 0v13.3H43L40.8 8h-5.5zm-8.1 0L25 21.3h7.7V8h-5.5zM19 8l-4.4 13.3h7.7L24.5 8H19zm-8.1 0L3.6 21.3h8.2L16.2 8h-5.3zm1.9-5.3c-.7 0-1.3.6-1.3 1.3v1.3h45.2V4c0-.7-.6-1.3-1.3-1.3H12.8z"/><path d="M57.7 54H36.3c-.7 0-1.3-.6-1.3-1.3 0-.7.6-1.4 1.3-1.4h1.3v-13c0-.7.6-1.3 1.3-1.3h16c.7 0 1.3.6 1.3 1.3v13h1.3c.7 0 1.3.6 1.3 1.4.2.7-.4 1.3-1.1 1.3zM40.3 39.7v11.6h13.3V39.7H40.3zM49.7 57H39.3c-.8.1-1.4.7-1.3 1.5-.1.8.5 1.4 1.3 1.5h10.4c.8-.1 1.4-.7 1.3-1.5.1-.8-.5-1.4-1.3-1.5z"/></svg>