<svg xmlns="http://www.w3.org/2000/svg" viewBox="0 0 70 70"><path d="M63.5 53c.8 0 1.5-.7 1.5-1.5s-.7-1.5-1.5-1.5-1.5.7-1.5 1.5.7 1.5 1.5 1.5zm0-6c.8 0 1.5-.6 1.5-1.4V34.4c0-.8-.7-1.4-1.5-1.4s-1.5.6-1.5 1.4v11.2c0 .8.7 1.4 1.5 1.4z"/><path d="M65.9 70H4.1c-.8 0-1.4-.6-1.4-1.4V50H1.4C.6 50 0 49.4 0 48.7v-8.2c0-.8.6-1.4 1.4-1.4h5.5C6 37.9 5.5 36.5 5.5 35c0-3.8 3.1-6.8 6.9-6.8 3.2 0 6 2.3 6.7 5.5h.2c.3-1.6 1.3-3.1 2.6-4.1V15c0-.8.6-1.4 1.4-1.4h10.4v-1.4C33.6 5.5 39.1 0 45.9 0s12.3 5.5 12.3 12.3v1.4h10.4c.8 0 1.4.6 1.4 1.4V66c0 2.2-1.8 4-4.1 4zm-30.4-8.2v5.5h30.4c.8 0 1.4-.6 1.4-1.4v-4.1H35.5zM26 50v17.2h6.8V50H26zm-11 0v17.2h8.2V50H15zm-9.5 0v17.2h6.8V50H5.5zm30 0v9h31.7V16.4h-9v6.3h1.4c.8 0 1.4.6 1.4 1.4 0 .8-.6 1.4-1.4 1.4h-5.5c-.8 0-1.4-.6-1.4-1.4 0-.8.6-1.4 1.4-1.4h1.4v-6.3H36.4v6.3h1.4c.8 0 1.4.6 1.4 1.4 0 .8-.6 1.4-1.4 1.4h-5.5c-.8 0-1.4-.6-1.4-1.4 0-.8.6-1.4 1.4-1.4h1.4v-6.3h-9v11.9c3.7-.8 7.3 1.6 8.1 5.3.1.5.1.9.1 1.4 0 1.5-.5 2.9-1.4 4.1H37c.8 0 1.4.6 1.4 1.4v8.2c0 .8-.6 1.4-1.4 1.4l-1.5-.1zM26 41.8v5.5h9.6v-5.5H26zm-11 0v5.5h8.2v-5.5H15zm-12.3 0v5.5h9.6v-5.5H2.7zM26 30.9c-.5 0-.9.1-1.4.2v5.2c.6.8 1 1.7 1.2 2.7h.2c2.3 0 4.1-1.8 4.1-4.1 0-2.2-1.9-4-4.1-4zm-6.9 5.5c-1.7 0-3.2 1.1-3.8 2.7H23c-.4-1.3-1.5-2.2-2.8-2.6l-1.1-.1zm-6.8-5.5c-2.3 0-4.1 1.8-4.1 4.1s1.8 4.1 4.1 4.1h.1c.4-2.1 1.9-4 3.9-4.9-.3-1.9-2-3.3-4-3.3zM45.9 2.7c-5.3 0-9.6 4.3-9.6 9.6v1.4h19.1v-1.4c.1-5.3-4.2-9.6-9.5-9.6z"/></svg>