<svg xmlns="http://www.w3.org/2000/svg" viewBox="0 0 67 81"><path d="M33.5 81C15.1 81.1.1 66.2 0 47.8 0 40.2 2.6 32.9 7.4 27L4 23.6c-1.9-1.8-1.9-4.8 0-6.7 1.9-1.9 4.9-1.9 6.8 0l3.7 3.6c3.8-2.6 8.2-4.5 12.8-5.3v-4.7h-3.2c-.9 0-1.6-.7-1.6-1.6V4.7c0-2.6 2.2-4.8 4.8-4.7h12.8c2.6 0 4.8 2.1 4.8 4.7v4.1c0 .9-.7 1.6-1.6 1.6h-3.2v4.7c4.6.9 8.9 2.7 12.8 5.3l3.7-3.6c1.9-1.9 4.9-1.9 6.8 0 1.9 1.8 1.9 4.8 0 6.7L59.6 27c4.8 5.9 7.4 13.2 7.4 20.8-.1 18.4-15.1 33.3-33.5 33.2zm0-63.3c-1.5 0-3 .1-4.5.3-7 1.1-13.5 4.6-18.2 9.9-4.9 5.5-7.5 12.5-7.5 19.8 0 16.8 13.6 30.3 30.4 30.2 16.6-.1 30-13.5 30.1-30.1 0-7.3-2.7-14.4-7.5-19.8-4.7-5.3-11.2-8.8-18.2-9.9-1.6-.3-3.1-.4-4.6-.4zm26.2.9c-.4 0-.8.2-1.1.5l-3.4 3.3c.8.7 1.6 1.4 2.3 2.2l3.3-3.3c.6-.6.6-1.6 0-2.2-.3-.3-.7-.5-1.1-.5zm-52.4 0c-.4 0-.8.2-1.1.5-.6.6-.6 1.6 0 2.2l3.3 3.3c.7-.7 1.5-1.5 2.3-2.2l-3.4-3.3c-.3-.3-.7-.5-1.1-.5zm26.2-4c1.1 0 2.1.1 3.2.1v-4.3h-6.4v4.3c1.1-.1 2.1-.1 3.2-.1zM27.1 3.2c-.9 0-1.6.7-1.6 1.6v2.5h16V4.7c0-.9-.7-1.6-1.6-1.6l-12.8.1z"/><path d="M34 53c-2.7.1-4.9-2-5-4.7 0-2 1.4-3.8 3.3-4.4V32.6c0-.9.8-1.6 1.7-1.6.9 0 1.6.7 1.7 1.6v11.3c2 .6 3.3 2.4 3.3 4.4-.1 2.7-2.3 4.8-5 4.7zm0-6.3c-.9 0-1.6.6-1.7 1.5 0 .9.6 1.6 1.5 1.7h.2c.9 0 1.6-.6 1.7-1.5 0-.9-.6-1.6-1.5-1.7H34z"/><path d="M50.9 32.1c0-.1-.1-.1 0 0l-.2-.2c-2.9-2.7-6.4-4.7-10.3-5.8-.9-.3-1.7.2-2 1.1-.2.8.2 1.7 1.1 1.9 2.9.8 5.5 2.2 7.8 4.1l-1.1 1.1c-.6.6-.6 1.5-.1 2.1l.1.1c.6.6 1.7.6 2.3 0l1.1-1.1c2.9 3.2 4.7 7.3 5.1 11.7h-1.6c-.9 0-1.6.6-1.6 1.5s.6 1.6 1.5 1.6h1.8c-.4 4.3-2.1 8.4-5.1 11.7l-1.1-1.1c-.6-.6-1.7-.6-2.3 0-.6.6-.6 1.5-.1 2.1l.1.1 1.1 1.1c-3.5 2.8-7.7 4.5-12.2 4.8v-1.5c0-.9-.8-1.6-1.7-1.6-.8 0-1.5.7-1.6 1.6v1.5c-4.5-.3-8.7-2-12.2-4.8l1.1-1.1c.6-.6.6-1.5.1-2.1l-.1-.1c-.6-.6-1.7-.6-2.3 0l-1.1 1.1c-2.9-3.2-4.7-7.3-5.1-11.7h1.6c.9 0 1.6-.6 1.6-1.5s-.6-1.6-1.5-1.6h-1.8c.4-4.3 2.1-8.4 5.1-11.7l1.1 1.1c.6.6 1.7.6 2.3 0 .6-.6.6-1.5.1-2.1l-.1-.1-1.1-1.1c2.3-1.9 4.9-3.3 7.8-4.1.8-.2 1.3-1.1 1.1-1.9-.3-.8-1.2-1.3-2-1.1-3.8 1.1-7.4 3.1-10.3 5.8l-.1.1-.1.1c-9 8.6-9.4 22.9-.8 32.1l.9.9.1.1.1.1c4.7 4.4 10.8 6.8 17.2 6.8 6.4 0 12.6-2.4 17.2-6.8 0 0 .1 0 .1-.1s.1-.1.1-.1c9.1-8.6 9.5-23 .9-32.1l-.9-.9z"/><path d="M34 28c1.1 0 2-.9 2-2s-.9-2-2-2-2 .9-2 2 .9 2 2 2z"/></svg>