<svg xmlns="http://www.w3.org/2000/svg" viewBox="0 0 70 69"><path d="M23.7 27.7c.4-.4.4-1 0-1.4s-1-.4-1.4 0-.4 1 0 1.4c.4.4 1 .4 1.4 0zM35.5 30c-1.9 0-3.5-1.6-3.5-3.5 0-.9.4-1.8 1-2.5 1.4-1.4 3.6-1.4 5 0s1.4 3.6 0 5c-.7.6-1.6 1-2.5 1zm0-4.7c-.6 0-1.2.5-1.2 1.2s.5 1.2 1.2 1.2c.6 0 1.2-.5 1.2-1.2 0-.3-.1-.6-.3-.8-.3-.2-.6-.4-.9-.4zm0 20.7c-1.9 0-3.5-1.6-3.5-3.5 0-.9.4-1.8 1-2.5 1.4-1.4 3.6-1.3 4.9 0 1.3 1.4 1.3 3.5 0 4.9-.6.7-1.5 1.1-2.4 1.1zm0-4.7c-.6 0-1.2.5-1.2 1.2 0 .6.5 1.2 1.2 1.2s1.2-.5 1.2-1.2c0-.3-.1-.6-.3-.8-.3-.2-.6-.4-.9-.4zM24 37.8c.1.7.8 1.3 1.6 1.1l19.3-4.1c.8-.2 1.2-.9 1.1-1.7-.1-.7-.8-1.3-1.6-1.1l-19.3 4.1c-.8.2-1.2 1-1.1 1.7z"/><path d="M42.6 8c-.4 0-.7.1-1 .4L27.4 22.6c-.5.5-.5 1.4 0 1.9s1.4.5 1.9 0l13.2-13.2 17.2 17.2-30.3 30.2-17.1-17.1 9.5-9.5c.5-.5.5-1.4 0-1.9s-1.4-.5-1.9 0L9.4 40.6c-.5.5-.5 1.4 0 1.9l19.1 19.1c.5.5 1.4.5 1.9 0l32.2-32.2c.5-.5.5-1.4 0-1.9L43.5 8.4c-.2-.3-.6-.4-.9-.4z"/><path d="M27.3 69c-1.1 0-2.1-.4-2.9-1.2L19 62.5c-1 .4-2.1.5-3.2.5-2.6 0-5-1-6.9-2.8a9.55 9.55 0 0 1-2.3-9.9L1.2 45c-1.6-1.5-1.6-4.1-.1-5.7l.1-.1 38.4-38c1.6-1.6 4.2-1.6 5.8 0l4.8 4.9c1.6-1.2 3.6-1.8 5.7-1.8s4.2.7 5.9 1.9L67.7.4c.5-.5 1.4-.5 1.9 0s.5 1.4 0 1.9l-5.9 5.8c1.3 1.6 2 3.6 2 5.7 0 2-.6 4-1.9 5.7l4.9 4.7c1.6 1.5 1.6 4.1.1 5.7l-.1.1-38.5 37.8c-.8.8-1.8 1.2-2.9 1.2zm-8-9.5c.4 0 .7.1 1 .4l6.1 6c.5.5 1.4.5 1.9 0L66.9 28c.5-.5.5-1.4 0-1.9L61 20.5c-.5-.5-.5-1.4 0-1.9 2.3-2.3 2.6-5.9.8-8.6l-2 2c.7 1.5.4 3.4-.8 4.6-1.6 1.6-4.2 1.6-5.8 0-1.6-1.5-1.6-4.1-.1-5.7l.1-.1c.8-.8 1.8-1.2 2.9-1.2.6 0 1.2.1 1.8.4l2-2c-1.2-.8-2.5-1.2-3.9-1.2-1.8 0-3.5.7-4.8 1.9-.3.3-.6.4-1 .4s-.7-.1-1-.4l-5.7-5.8c-.5-.5-1.4-.5-1.9 0l-38.4 38c-.5.5-.5 1.4 0 1.9l6.1 6c.4.4.5 1 .3 1.5C8.4 52.9 8.9 56 11 58c1.3 1.3 3.1 2 4.9 2 1 0 2-.2 2.9-.6.1.2.3.1.5.1zm36.8-47.1c-.4 0-.7.1-1 .4-.5.5-.5 1.4 0 1.9s1.4.5 1.9 0 .5-1.4 0-1.9c-.2-.3-.6-.4-.9-.4z"/></svg>