<svg xmlns="http://www.w3.org/2000/svg" viewBox="0 0 64 64"><path d="M40.399 38.4c-.6.6-.6 1.5 0 2.1.6.6 1.5.6 2.1 0 .6-.6.6-1.5 0-2.1-.5-.5-1.5-.5-2.1 0zm-7.9-2.4c1.9 0 3.5 1.6 3.5 3.5 0 .9-.4 1.8-1 2.5-1.4 1.4-3.6 1.4-5 0s-1.4-3.6 0-5c.7-.6 1.6-1 2.5-1zm0 4.7c.6 0 1.2-.5 1.2-1.2s-.5-1.2-1.2-1.2c-.6 0-1.2.5-1.2 1.2 0 .3.1.6.3.8.3.2.6.4.9.4zm0-19.7c1.9 0 3.5 1.6 3.5 3.5 0 .9-.4 1.8-1 2.5-1.4 1.4-3.6 1.3-4.9 0-1.3-1.4-1.3-3.5 0-4.9.6-.7 1.5-1.1 2.4-1.1zm0 4.7c.6 0 1.2-.5 1.2-1.2 0-.6-.5-1.2-1.2-1.2-.6 0-1.2.5-1.2 1.2 0 .3.1.6.3.8.3.2.6.4.9.4zm10.5 4.3c-.2-.7-.8-1.1-1.5-1l-18.5 3.5c-.7.1-1.1.8-1 1.4.2.7.8 1.1 1.5 1l18.5-3.4c.6-.2 1.1-.8 1-1.5z"/><path d="M26.499 57c.3 0 .6-.1.9-.4l12.9-12.8c.5-.5.5-1.3 0-1.7-.5-.5-1.2-.5-1.7 0l-12 12-15.6-15.6 27.5-27.5 15.5 15.5-8.6 8.6c-.5.5-.5 1.3 0 1.7.5.5 1.3.5 1.7 0l9.4-9.4c.5-.5.5-1.3 0-1.7l-17.3-17.3c-.5-.5-1.3-.5-1.7 0l-29.2 29.2c-.5.5-.5 1.3 0 1.7l17.4 17.3c.2.3.5.4.8.4z"/><path d="M38.999 0c1 0 2 .4 2.7 1.1l5 5c.9-.3 1.9-.5 2.9-.5 4.9 0 8.9 4 8.9 8.9 0 1-.2 2-.5 2.9l5 5c1.5 1.5 1.5 3.8 0 5.3l-35.2 35.2c-1.5 1.5-3.8 1.5-5.3 0l-4.4-4.5c-1.5 1.1-3.3 1.7-5.2 1.7-1.9 0-3.8-.6-5.4-1.8l-5.4 5.4c-.5.5-1.3.5-1.8 0s-.5-1.3 0-1.8l5.4-5.4c-2.4-3.1-2.4-7.4-.1-10.6l-4.5-4.4c-1.5-1.5-1.5-3.8 0-5.3l35.3-35.1c.7-.7 1.6-1.1 2.6-1.1zm7.3 8.8c-.3 0-.6-.1-.9-.4l-5.5-5.5c-.5-.5-1.3-.5-1.8 0L2.899 38c-.5.5-.5 1.3 0 1.8l5.3 5.2c.5.5.5 1.3 0 1.8-2.1 2.1-2.4 5.5-.7 8l1.8-1.8c-.9-1.9-.1-4.1 1.8-5 1.9-.9 4.1-.1 5 1.8.7 1.4.4 3.1-.7 4.3-.7.5-1.7.9-2.7.9-.6 0-1.1-.1-1.6-.4l-1.8 1.8c1.1.7 2.3 1.1 3.6 1.1 1.6 0 3.2-.6 4.4-1.8.2-.2.5-.4.9-.4.3 0 .7.1.9.4l5.2 5.4c.5.5 1.3.5 1.8 0l35-35.2c.5-.5.5-1.3 0-1.8l-5.5-5.5c-.4-.4-.5-.9-.2-1.4 1.1-2.4.6-5.3-1.3-7.2-1.2-1.2-2.8-1.9-4.5-1.9-.9 0-1.8.2-2.7.6-.2 0-.4.1-.6.1zm-33.6 43.7c.7 0 1.2-.6 1.2-1.3 0-.7-.6-1.2-1.3-1.2-.7 0-1.2.6-1.2 1.3 0 .3.1.6.4.9.3.2.6.3.9.3z"/></svg>