<svg xmlns="http://www.w3.org/2000/svg" viewBox="0 0 74 74"><path d="M48.5 49c-.8 0-1.5.7-1.5 1.5s.7 1.5 1.5 1.5 1.5-.7 1.5-1.5-.7-1.5-1.5-1.5zm-20-1.4c-.8 0-1.5-.6-1.5-1.4 0-.8.6-1.5 1.4-1.5h.1c.6 0 1.2.3 1.6.7.6.5 1.5.5 2.1 0 .5-.5.6-1.4 0-2l-.1-.1c-.6-.6-1.4-1-2.2-1.3v-1.7c0-.8-.7-1.4-1.5-1.4s-1.5.6-1.5 1.4V42c-1.8.6-2.9 2.2-3 4 0 2.4 2 4.3 4.5 4.3.8 0 1.5.6 1.5 1.4s-.6 1.5-1.4 1.5h-.1c-.8-.1-1.5-.5-1.9-1.1-.5-.6-1.5-.7-2.1-.2-.6.5-.7 1.4-.2 2v.1c.7.9 1.7 1.5 2.7 1.9v1.7c0 .8.7 1.4 1.5 1.4s1.5-.6 1.5-1.4v-1.7c1.8-.6 2.9-2.2 3-4 .1-2.5-1.9-4.4-4.4-4.3zM17.5 24c.8 0 1.5-.7 1.5-1.5v-6c0-.8-.7-1.5-1.5-1.5s-1.5.7-1.5 1.5v6c0 .8.7 1.5 1.5 1.5z"/><path d="M51.5 74H7.2c-4 0-7.2-3.2-7.2-7.2V22.5c0-4 3.2-7.2 7.2-7.2h1.4v-1.4c0-2.4 1.9-4.3 4.3-4.3h4.3V4.3c0-2.4 1.9-4.3 4.3-4.3h26.9c2.4 0 4.3 1.9 4.3 4.3v11H61c4 0 7.2 3.2 7.2 7.2v11.6c3.2 0 5.8 2.6 5.8 5.8v13c0 2.4-1.9 4.3-4.3 4.3h-1.4V61c0 4-3.2 7.2-7.2 7.2h-2.5c-.8 3.4-3.7 5.8-7.1 5.8zM2.9 28.2v38.5c0 2.4 1.9 4.3 4.3 4.3h44.2c2.4 0 4.3-1.9 4.3-4.3v-9.5h-10c-2.4 0-4.3-1.9-4.3-4.3v-5.8c0-2.4 1.9-4.3 4.3-4.3h10.1v-8.7c0-2.4-1.9-4.3-4.3-4.3h-44c-1.6 0-3.3-.6-4.6-1.6zm55.8 29v8.1H61c2.4 0 4.3-1.9 4.3-4.3v-3.8h-6.6zm-13-11.5c-.8 0-1.4.6-1.4 1.4v5.8c0 .8.6 1.4 1.4 1.4h24c.8 0 1.4-.6 1.4-1.4v-8c-.9.5-1.9.8-2.9.8H45.7zM68.2 37v5.8c1.6 0 2.9-1.3 2.9-2.9 0-1.6-1.3-2.9-2.9-2.9zM52.9 18.2V27c3.4.7 5.8 3.6 5.8 7.1v8.7h6.6V22.5c0-2.4-1.9-4.3-4.3-4.3h-8.1zM21.7 2.9c-.8 0-1.4.6-1.4 1.4v5.2H39c2.4 0 4.3 1.9 4.3 4.3v13H50V4.3c0-.8-.6-1.4-1.4-1.4H21.7zm13 9.5v14.5h5.8v-13c0-.8-.6-1.4-1.4-1.4h-4.4zm-8.7 0v14.5h5.8V12.4H26zm-13 0c-.8 0-1.4.6-1.4 1.4v13h11.6V12.4H13zm-5.8 5.8c-2.4 0-4.3 1.9-4.3 4.3C3 25 5 27 7.5 26.9h1.2v-8.7H7.2z"/><path d="M60.5 49h-7c-.8 0-1.5.7-1.5 1.5s.7 1.5 1.5 1.5h7c.8 0 1.5-.7 1.5-1.5s-.7-1.5-1.5-1.5z"/></svg>